<?xml version="1.0" encoding="UTF-8" standalone="no"?><!DOCTYPE svg PUBLIC "-//W3C//DTD SVG 1.1//EN" "http://www.w3.org/Graphics/SVG/1.1/DTD/svg11.dtd"><svg width="1813px" height="591px" version="1.1" xmlns="http://www.w3.org/2000/svg" xmlns:xlink="http://www.w3.org/1999/xlink" xml:space="preserve" xmlns:serif="http://www.serif.com/" style="fill-rule:evenodd;clip-rule:evenodd;stroke-linejoin:round;stroke-miterlimit:2;"><rect id="logo_lassakdigital-white" x="0" y="0" width="1812.117" height="590.88" style="fill:none;"/><clipPath id="_clip1"><rect x="0" y="0" width="1812.117" height="590.88"/></clipPath><g clip-path="url(#_clip1)"><path d="M214.046,333.258c-7.101,43.122 -7.877,42.644 -17.761,84.899c-3.699,15.813 22.042,-7.516 66.177,-27.126c124.504,-55.323 274.119,-78.933 295.814,27.139c17.257,84.371 -63.931,125.846 -123.335,110.577c-161.833,-41.596 -171.63,-92.987 -197.365,-78.078c-110.494,64.014 -112.434,92.817 -169.855,79.075c-52.487,-12.561 -106.43,-93.067 -26.443,-155.671c58.317,-45.643 133.015,-85.038 133.225,-108.08c1.188,-130.373 -32.727,-232.564 65.994,-262.245c64.744,-19.466 168.844,51.273 64.224,188.234c-13.853,18.136 -13.054,18.331 -27.087,36.447c-41.677,53.802 -60.203,58.632 -61.424,72.933c-0,0 -1.991,29.344 -2.164,31.896Zm221.197,54.631c15.966,-1.003 15.602,-2.122 31.65,-0.414c60.882,6.48 51.13,59.124 49.15,65.788c-21.441,72.147 -135.1,18.591 -214.441,-22.375c-7.699,-3.975 -5.234,-8.86 -1.331,-10.274c80.187,-29.048 103.989,-30.711 134.971,-32.725Zm-221.222,-263.398c0.034,-2.556 0.397,-29.836 0.585,-31.948c4.785,-53.963 53.559,-48.422 54.112,-48.29c76.557,18.275 24.461,100.024 -46.627,185.327c-8.377,10.053 -6.683,-14.615 -8.07,-105.09Zm-56.304,271.969c-2.227,7.057 -4.454,14.114 -6.681,21.171c-14.046,38.106 -16.802,44.504 -34.674,63.427c-23.202,13.087 -26.169,11.609 -48.438,3.074c-71.603,-52.398 38.242,-100.383 69.863,-126.592c28.144,-23.328 29.949,-23.059 31.731,-20.612c3.182,4.371 -10.527,54.847 -11.8,59.533Z" style="fill:#fff;"/><g transform="matrix(28.744025,0,0,28.744025,-21146.603949,-4877.684278)"><g><g transform="matrix(12,0,0,12,758.079147,178.444074)"><path d="M0.063,-0l0,-0.728l0.149,0l0,0.603l0.318,0l0,0.125l-0.467,-0Z" style="fill:#fff;fill-rule:nonzero;"/></g><g transform="matrix(12,0,0,12,764.840865,178.444074)"><path d="M0.213,0.01c-0.035,0 -0.065,-0.006 -0.093,-0.018c-0.027,-0.012 -0.049,-0.03 -0.064,-0.054c-0.016,-0.024 -0.023,-0.054 -0.023,-0.089c0,-0.03 0.006,-0.056 0.017,-0.076c0.011,-0.02 0.026,-0.036 0.045,-0.049c0.019,-0.012 0.041,-0.022 0.066,-0.028c0.025,-0.006 0.05,-0.011 0.077,-0.013c0.032,-0.003 0.057,-0.006 0.076,-0.009c0.019,-0.003 0.033,-0.007 0.042,-0.013c0.009,-0.006 0.013,-0.015 0.013,-0.026l0,-0.002c0,-0.015 -0.003,-0.028 -0.01,-0.038c-0.007,-0.011 -0.016,-0.019 -0.029,-0.024c-0.013,-0.006 -0.028,-0.009 -0.046,-0.009c-0.019,0 -0.035,0.003 -0.049,0.009c-0.014,0.006 -0.025,0.013 -0.034,0.023c-0.009,0.01 -0.015,0.02 -0.018,0.032l-0.134,-0.017c0.007,-0.033 0.022,-0.06 0.043,-0.083c0.021,-0.023 0.048,-0.041 0.081,-0.053c0.033,-0.012 0.07,-0.018 0.112,-0.018c0.031,0 0.06,0.004 0.087,0.011c0.028,0.007 0.052,0.018 0.073,0.033c0.021,0.015 0.038,0.034 0.051,0.057c0.012,0.023 0.018,0.05 0.018,0.082l0,0.364l-0.139,-0l0,-0.075l-0.004,0c-0.009,0.017 -0.02,0.032 -0.035,0.045c-0.014,0.013 -0.032,0.023 -0.052,0.03c-0.02,0.007 -0.044,0.011 -0.071,0.011Zm0.041,-0.102c0.023,0 0.043,-0.005 0.061,-0.014c0.017,-0.009 0.031,-0.021 0.041,-0.037c0.01,-0.015 0.015,-0.033 0.015,-0.052l0,-0.057c-0.005,0.003 -0.011,0.005 -0.019,0.008c-0.008,0.003 -0.017,0.005 -0.028,0.007c-0.01,0.002 -0.021,0.004 -0.031,0.005c-0.011,0.002 -0.02,0.003 -0.029,0.004c-0.018,0.003 -0.033,0.007 -0.047,0.012c-0.014,0.006 -0.024,0.013 -0.032,0.023c-0.007,0.01 -0.011,0.022 -0.011,0.036c0,0.014 0.003,0.025 0.01,0.035c0.007,0.009 0.017,0.017 0.029,0.021c0.012,0.005 0.026,0.007 0.042,0.007Z" style="fill:#fff;fill-rule:nonzero;"/></g><g transform="matrix(12,0,0,12,771.73149,178.444074)"><path d="M0.276,0.011c-0.044,0 -0.083,-0.006 -0.117,-0.019c-0.034,-0.013 -0.062,-0.031 -0.083,-0.056c-0.021,-0.024 -0.035,-0.054 -0.04,-0.088l0.137,-0.019c0.006,0.025 0.018,0.043 0.036,0.056c0.018,0.013 0.041,0.019 0.07,0.019c0.028,0 0.049,-0.005 0.065,-0.016c0.016,-0.011 0.024,-0.024 0.024,-0.04c0,-0.014 -0.006,-0.025 -0.017,-0.034c-0.012,-0.009 -0.029,-0.016 -0.052,-0.021l-0.093,-0.019c-0.052,-0.011 -0.091,-0.029 -0.117,-0.055c-0.026,-0.026 -0.039,-0.059 -0.039,-0.1c0,-0.034 0.009,-0.064 0.028,-0.089c0.019,-0.025 0.045,-0.044 0.079,-0.058c0.034,-0.014 0.074,-0.021 0.119,-0.021c0.044,0 0.081,0.006 0.113,0.019c0.032,0.012 0.058,0.03 0.077,0.053c0.019,0.023 0.032,0.05 0.037,0.081l-0.13,0.018c-0.005,-0.019 -0.015,-0.035 -0.031,-0.047c-0.016,-0.012 -0.037,-0.018 -0.063,-0.018c-0.024,0 -0.045,0.005 -0.06,0.015c-0.016,0.01 -0.024,0.024 -0.024,0.04c0,0.014 0.005,0.025 0.016,0.034c0.011,0.009 0.028,0.016 0.053,0.021l0.098,0.02c0.053,0.01 0.092,0.028 0.117,0.052c0.026,0.024 0.038,0.056 0.038,0.094c0,0.035 -0.01,0.066 -0.031,0.093c-0.021,0.027 -0.049,0.047 -0.085,0.062c-0.036,0.015 -0.078,0.022 -0.125,0.022Z" style="fill:#fff;fill-rule:nonzero;"/></g><g transform="matrix(12,0,0,12,778.346725,178.444074)"><path d="M0.276,0.011c-0.044,0 -0.083,-0.006 -0.117,-0.019c-0.034,-0.013 -0.062,-0.031 -0.083,-0.056c-0.021,-0.024 -0.035,-0.054 -0.04,-0.088l0.137,-0.019c0.006,0.025 0.018,0.043 0.036,0.056c0.018,0.013 0.041,0.019 0.07,0.019c0.028,0 0.049,-0.005 0.065,-0.016c0.016,-0.011 0.024,-0.024 0.024,-0.04c0,-0.014 -0.006,-0.025 -0.017,-0.034c-0.012,-0.009 -0.029,-0.016 -0.052,-0.021l-0.093,-0.019c-0.052,-0.011 -0.091,-0.029 -0.117,-0.055c-0.026,-0.026 -0.039,-0.059 -0.039,-0.1c0,-0.034 0.009,-0.064 0.028,-0.089c0.019,-0.025 0.045,-0.044 0.079,-0.058c0.034,-0.014 0.074,-0.021 0.119,-0.021c0.044,0 0.081,0.006 0.113,0.019c0.032,0.012 0.058,0.03 0.077,0.053c0.019,0.023 0.032,0.05 0.037,0.081l-0.13,0.018c-0.005,-0.019 -0.015,-0.035 -0.031,-0.047c-0.016,-0.012 -0.037,-0.018 -0.063,-0.018c-0.024,0 -0.045,0.005 -0.06,0.015c-0.016,0.01 -0.024,0.024 -0.024,0.04c0,0.014 0.005,0.025 0.016,0.034c0.011,0.009 0.028,0.016 0.053,0.021l0.098,0.02c0.053,0.01 0.092,0.028 0.117,0.052c0.026,0.024 0.038,0.056 0.038,0.094c0,0.035 -0.01,0.066 -0.031,0.093c-0.021,0.027 -0.049,0.047 -0.085,0.062c-0.036,0.015 -0.078,0.022 -0.125,0.022Z" style="fill:#fff;fill-rule:nonzero;"/></g><g transform="matrix(12,0,0,12,784.961959,178.444074)"><path d="M0.213,0.01c-0.035,0 -0.065,-0.006 -0.093,-0.018c-0.027,-0.012 -0.049,-0.03 -0.064,-0.054c-0.016,-0.024 -0.023,-0.054 -0.023,-0.089c0,-0.03 0.006,-0.056 0.017,-0.076c0.011,-0.02 0.026,-0.036 0.045,-0.049c0.019,-0.012 0.041,-0.022 0.066,-0.028c0.025,-0.006 0.05,-0.011 0.077,-0.013c0.032,-0.003 0.057,-0.006 0.076,-0.009c0.019,-0.003 0.033,-0.007 0.042,-0.013c0.009,-0.006 0.013,-0.015 0.013,-0.026l0,-0.002c0,-0.015 -0.003,-0.028 -0.01,-0.038c-0.007,-0.011 -0.016,-0.019 -0.029,-0.024c-0.013,-0.006 -0.028,-0.009 -0.046,-0.009c-0.019,0 -0.035,0.003 -0.049,0.009c-0.014,0.006 -0.025,0.013 -0.034,0.023c-0.009,0.01 -0.015,0.02 -0.018,0.032l-0.134,-0.017c0.007,-0.033 0.022,-0.06 0.043,-0.083c0.021,-0.023 0.048,-0.041 0.081,-0.053c0.033,-0.012 0.07,-0.018 0.112,-0.018c0.031,0 0.06,0.004 0.087,0.011c0.028,0.007 0.052,0.018 0.073,0.033c0.021,0.015 0.038,0.034 0.051,0.057c0.012,0.023 0.018,0.05 0.018,0.082l0,0.364l-0.139,-0l0,-0.075l-0.004,0c-0.009,0.017 -0.02,0.032 -0.035,0.045c-0.014,0.013 -0.032,0.023 -0.052,0.03c-0.02,0.007 -0.044,0.011 -0.071,0.011Zm0.041,-0.102c0.023,0 0.043,-0.005 0.061,-0.014c0.017,-0.009 0.031,-0.021 0.041,-0.037c0.01,-0.015 0.015,-0.033 0.015,-0.052l0,-0.057c-0.005,0.003 -0.011,0.005 -0.019,0.008c-0.008,0.003 -0.017,0.005 -0.028,0.007c-0.01,0.002 -0.021,0.004 -0.031,0.005c-0.011,0.002 -0.02,0.003 -0.029,0.004c-0.018,0.003 -0.033,0.007 -0.047,0.012c-0.014,0.006 -0.024,0.013 -0.032,0.023c-0.007,0.01 -0.011,0.022 -0.011,0.036c0,0.014 0.003,0.025 0.01,0.035c0.007,0.009 0.017,0.017 0.029,0.021c0.012,0.005 0.026,0.007 0.042,0.007Z" style="fill:#fff;fill-rule:nonzero;"/></g><g transform="matrix(12,0,0,12,791.852584,178.444074)"><path d="M0.192,-0.157l0,-0.175l0.021,0l0.179,-0.207l0.169,0l-0.235,0.271l-0.034,0l-0.1,0.111Zm-0.132,0.157l0,-0.728l0.146,0l0,0.728l-0.146,-0Zm0.34,-0l-0.164,-0.236l0.097,-0.104l0.238,0.339l-0.171,-0Z" style="fill:#fff;fill-rule:nonzero;"/></g></g></g><g transform="matrix(23.108657,0,0,23.108657,-16878.277697,-3591.596601)"><g><g transform="matrix(12,0,0,12,758.079147,178.444074)"><path d="M0.306,-0l-0.177,-0l0,-0.062l0.173,0c0.062,0 0.114,-0.012 0.156,-0.036c0.042,-0.024 0.073,-0.059 0.094,-0.105c0.021,-0.046 0.031,-0.1 0.031,-0.163c0,-0.062 -0.01,-0.116 -0.031,-0.161c-0.021,-0.045 -0.051,-0.079 -0.091,-0.103c-0.04,-0.024 -0.089,-0.036 -0.148,-0.036l-0.188,0l0,-0.062l0.192,0c0.069,0 0.129,0.014 0.178,0.043c0.049,0.029 0.087,0.07 0.114,0.125c0.026,0.054 0.04,0.119 0.04,0.194c0,0.076 -0.013,0.142 -0.04,0.197c-0.027,0.055 -0.066,0.096 -0.117,0.125c-0.051,0.029 -0.114,0.044 -0.187,0.044Zm-0.146,-0.728l0,0.728l-0.068,-0l0,-0.728l0.068,0Z" style="fill:#fff;fill-rule:nonzero;"/></g><g transform="matrix(12,0,0,12,766.592818,178.444074)"><path d="M0.079,-0l0,-0.539l0.065,0l0,0.539l-0.065,-0Zm0.033,-0.643c-0.013,0 -0.024,-0.005 -0.034,-0.014c-0.009,-0.009 -0.014,-0.02 -0.014,-0.033c0,-0.013 0.005,-0.024 0.014,-0.032c0.009,-0.009 0.021,-0.013 0.034,-0.013c0.013,0 0.024,0.004 0.034,0.013c0.009,0.009 0.014,0.02 0.014,0.032c0,0.013 -0.005,0.024 -0.014,0.033c-0.009,0.009 -0.021,0.014 -0.034,0.014Z" style="fill:#fff;fill-rule:nonzero;"/></g><g transform="matrix(12,0,0,12,769.276412,178.444074)"><path d="M0.288,0.214c-0.037,0 -0.071,-0.005 -0.099,-0.015c-0.029,-0.01 -0.053,-0.024 -0.072,-0.042c-0.019,-0.018 -0.033,-0.039 -0.043,-0.063l0.057,-0.026c0.007,0.016 0.017,0.03 0.031,0.044c0.013,0.014 0.03,0.024 0.051,0.032c0.021,0.008 0.046,0.012 0.075,0.012c0.049,0 0.088,-0.012 0.117,-0.037c0.029,-0.025 0.044,-0.062 0.044,-0.112l0,-0.117l-0.005,0c-0.008,0.018 -0.019,0.035 -0.034,0.052c-0.014,0.016 -0.033,0.029 -0.055,0.04c-0.022,0.01 -0.049,0.015 -0.08,0.015c-0.043,0 -0.082,-0.011 -0.116,-0.032c-0.034,-0.022 -0.06,-0.052 -0.08,-0.093c-0.019,-0.04 -0.029,-0.088 -0.029,-0.143c0,-0.055 0.01,-0.103 0.029,-0.145c0.019,-0.042 0.045,-0.074 0.079,-0.097c0.034,-0.023 0.073,-0.035 0.117,-0.035c0.032,0 0.059,0.006 0.081,0.017c0.022,0.011 0.041,0.025 0.055,0.042c0.014,0.017 0.026,0.035 0.033,0.052l0.005,0l0,-0.104l0.063,0l0,0.549c0,0.047 -0.01,0.085 -0.029,0.115c-0.02,0.03 -0.046,0.053 -0.08,0.067c-0.034,0.014 -0.073,0.022 -0.116,0.022Zm-0.004,-0.276c0.035,0 0.064,-0.008 0.089,-0.025c0.025,-0.017 0.044,-0.041 0.057,-0.073c0.013,-0.031 0.02,-0.069 0.02,-0.112c0,-0.042 -0.007,-0.08 -0.02,-0.112c-0.013,-0.032 -0.032,-0.058 -0.057,-0.076c-0.025,-0.018 -0.055,-0.028 -0.09,-0.028c-0.035,0 -0.065,0.009 -0.09,0.028c-0.025,0.019 -0.044,0.044 -0.057,0.077c-0.013,0.032 -0.02,0.069 -0.02,0.111c0,0.042 0.007,0.079 0.02,0.11c0.013,0.032 0.032,0.056 0.057,0.073c0.025,0.017 0.055,0.026 0.09,0.026Z" style="fill:#fff;fill-rule:nonzero;"/></g><g transform="matrix(12,0,0,12,776.389693,178.444074)"><path d="M0.079,-0l0,-0.539l0.065,0l0,0.539l-0.065,-0Zm0.033,-0.643c-0.013,0 -0.024,-0.005 -0.034,-0.014c-0.009,-0.009 -0.014,-0.02 -0.014,-0.033c0,-0.013 0.005,-0.024 0.014,-0.032c0.009,-0.009 0.021,-0.013 0.034,-0.013c0.013,0 0.024,0.004 0.034,0.013c0.009,0.009 0.014,0.02 0.014,0.032c0,0.013 -0.005,0.024 -0.014,0.033c-0.009,0.009 -0.021,0.014 -0.034,0.014Z" style="fill:#fff;fill-rule:nonzero;"/></g><g transform="matrix(12,0,0,12,779.090865,178.444074)"><path d="M0.267,-0.539l0,0.057l-0.26,0l0,-0.057l0.26,0Zm-0.177,-0.132l0.065,0l0,0.545c0,0.026 0.006,0.045 0.017,0.057c0.012,0.012 0.029,0.017 0.053,0.015c0.005,-0 0.011,-0.001 0.018,-0.002c0.007,-0.001 0.013,-0.002 0.019,-0.003l0.011,0.057c-0.007,0.002 -0.015,0.003 -0.024,0.004c-0.009,0.001 -0.017,0.002 -0.026,0.002c-0.043,0.002 -0.076,-0.008 -0.099,-0.03c-0.024,-0.022 -0.035,-0.054 -0.035,-0.095l0,-0.55Z" style="fill:#fff;fill-rule:nonzero;"/></g><g transform="matrix(12,0,0,12,782.723678,178.444074)"><path d="M0.224,0.011c-0.033,0 -0.063,-0.006 -0.09,-0.019c-0.027,-0.012 -0.049,-0.031 -0.065,-0.055c-0.016,-0.024 -0.024,-0.054 -0.024,-0.089c0,-0.027 0.005,-0.05 0.015,-0.068c0.01,-0.018 0.025,-0.033 0.043,-0.045c0.019,-0.012 0.041,-0.021 0.066,-0.028c0.026,-0.007 0.054,-0.012 0.085,-0.016c0.031,-0.004 0.056,-0.007 0.077,-0.01c0.021,-0.003 0.037,-0.007 0.048,-0.014c0.011,-0.006 0.016,-0.016 0.016,-0.03l0,-0.012c0,-0.024 -0.005,-0.045 -0.015,-0.062c-0.01,-0.017 -0.025,-0.031 -0.044,-0.04c-0.019,-0.009 -0.042,-0.014 -0.07,-0.014c-0.026,0 -0.049,0.004 -0.069,0.012c-0.02,0.008 -0.036,0.019 -0.049,0.033c-0.013,0.014 -0.022,0.029 -0.027,0.045l-0.064,-0.017c0.01,-0.03 0.025,-0.055 0.046,-0.074c0.021,-0.019 0.045,-0.034 0.073,-0.043c0.028,-0.01 0.057,-0.014 0.088,-0.014c0.023,0 0.046,0.003 0.069,0.009c0.023,0.006 0.044,0.016 0.063,0.03c0.019,0.014 0.034,0.032 0.046,0.055c0.012,0.023 0.017,0.051 0.017,0.085l0,0.368l-0.064,-0l0,-0.086l-0.004,0c-0.007,0.017 -0.019,0.032 -0.034,0.047c-0.015,0.015 -0.034,0.027 -0.056,0.036c-0.022,0.009 -0.049,0.014 -0.079,0.014Zm0.01,-0.059c0.034,0 0.062,-0.007 0.087,-0.021c0.024,-0.014 0.043,-0.034 0.056,-0.058c0.013,-0.024 0.02,-0.051 0.02,-0.081l0,-0.077c-0.005,0.004 -0.012,0.008 -0.023,0.012c-0.011,0.004 -0.023,0.007 -0.037,0.01c-0.014,0.003 -0.028,0.005 -0.042,0.007c-0.014,0.002 -0.028,0.004 -0.04,0.005c-0.03,0.004 -0.056,0.009 -0.077,0.017c-0.021,0.008 -0.038,0.019 -0.049,0.032c-0.011,0.014 -0.017,0.031 -0.017,0.053c0,0.021 0.005,0.039 0.016,0.054c0.011,0.015 0.025,0.026 0.044,0.034c0.019,0.008 0.04,0.012 0.063,0.012Z" style="fill:#fff;fill-rule:nonzero;"/></g><g transform="matrix(12,0,0,12,789.210006,178.444074)"><rect x="0.079" y="-0.728" width="0.065" height="0.728" style="fill:#fff;fill-rule:nonzero;"/></g></g></g></g></svg>